<svg width="196" height="35" viewBox="0 0 196 35" fill="none" xmlns="http://www.w3.org/2000/svg">
<g clip-path="url(#clip0)">
<path fill-rule="evenodd" clip-rule="evenodd" d="M32.361 28.4701C32.0989 29.2537 31.3128 30.4291 30.2647 31.2127C29.6096 31.7351 28.9545 32.1269 27.9064 32.3881C26.8583 32.6493 25.5481 32.7799 23.9759 32.7799H9.04011C7.46791 32.7799 6.15775 32.6493 5.10963 32.3881C4.0615 32.1269 3.40642 31.6045 2.75134 31.2127C1.70321 30.4291 0.917112 29.2537 0.65508 28.4701C0 26.903 0 24.944 0 23.7687V9.01119C0 7.83582 0 6.00746 0.65508 4.4403C0.917112 3.65672 1.70321 2.48134 2.75134 1.69776C3.40642 1.17537 4.0615 0.783582 5.10963 0.522388C6.15775 0.130597 7.46791 0 9.04011 0H23.8449C25.4171 0 26.7273 0.130597 27.7754 0.391791C28.8235 0.652985 29.4786 1.17537 30.1337 1.56716C31.1818 2.35075 31.9679 3.52612 32.2299 4.3097C32.885 6.00746 32.885 7.83582 32.885 9.01119V23.7687C33.016 24.944 33.016 26.903 32.361 28.4701Z" fill="url(#paint0_linear)"/>
<path d="M18.8663 18.9366C18.3422 18.4142 17.5561 18.0224 16.508 18.0224C15.4599 18.0224 14.6738 18.4142 14.1497 18.9366C13.8877 19.1978 13.7567 19.459 13.7567 19.8508C13.6257 20.6343 13.7567 21.2873 13.7567 22.3321C13.8877 23.3769 14.0187 24.6829 14.2807 25.9888C14.4118 26.903 14.5428 27.4254 14.6738 27.8172C14.8048 28.4702 15.5909 28.9926 16.639 28.9926C17.6872 28.9926 18.3422 28.4702 18.6043 27.8172C18.7353 27.4254 18.8663 26.903 18.9973 25.9888C19.2594 24.6829 19.3904 23.2463 19.5214 22.3321C19.6524 21.2873 19.6524 20.6343 19.5214 19.8508C19.2594 19.459 19.1283 19.1978 18.8663 18.9366ZM13.7567 14.2351C13.7567 15.6717 14.9358 16.9776 16.508 16.9776C17.9492 16.9776 19.2594 15.8023 19.2594 14.2351C19.2594 12.7985 18.0802 11.4926 16.508 11.4926C14.9358 11.6232 13.7567 12.7985 13.7567 14.2351ZM16.508 3.65674C10.2192 3.65674 4.97861 8.75002 4.97861 15.0187C4.97861 20.112 8.12299 24.4217 12.7086 26.1194C12.8396 26.1194 12.9706 26.1194 12.9706 25.9888C12.9706 25.597 12.8396 25.2052 12.8396 24.8135C12.8396 24.6829 12.7086 24.5523 12.5775 24.5523C9.0401 22.9851 6.41978 19.3284 6.5508 15.1493C6.5508 9.6642 11.1364 5.2239 16.639 5.2239C22.2727 5.2239 26.8583 9.6642 26.8583 15.2799C26.8583 19.459 24.369 22.9851 20.8315 24.5523C20.7005 24.5523 20.5695 24.6829 20.5695 24.8135C20.5695 25.2052 20.4385 25.597 20.4385 25.9888C20.4385 26.1194 20.5695 26.25 20.7005 26.1194C25.1551 24.5523 28.4305 20.2426 28.4305 15.1493C28.0374 8.75002 22.9278 3.65674 16.508 3.65674ZM16.246 8.88062C19.7834 8.75002 22.7968 11.6232 22.7968 15.1493C22.7968 16.9776 22.0107 18.5448 20.8315 19.7202C20.7005 19.8508 20.7005 19.9814 20.7005 20.112C20.7005 20.5038 20.7005 20.8955 20.7005 21.4179C20.7005 21.5485 20.8315 21.6791 20.9626 21.5485C23.0588 20.112 24.369 17.7612 24.369 15.1493C24.369 10.8396 20.7005 7.18286 16.246 7.44405C12.1845 7.57465 8.77807 10.9702 8.77807 15.0187C8.77807 17.7612 10.0882 20.112 12.1845 21.5485C12.3155 21.6791 12.4465 21.5485 12.4465 21.4179C12.4465 20.8955 12.4465 20.5038 12.4465 20.112C12.4465 19.9814 12.4465 19.8508 12.3155 19.7202C11.0053 18.5448 10.2192 16.847 10.3503 15.0187C10.3503 11.7538 12.9706 9.01122 16.246 8.88062Z" fill="white"/>
<path d="M50.7032 26.6419H44.5454L43.1043 31.0822H40.4839L46.3797 14.8882H49.131L55.0267 31.0822H52.4064L50.7032 26.6419ZM45.2005 24.683H50.1791L47.8208 17.6307H47.6898L45.2005 24.683Z" fill="white"/>
<path d="M67.6043 25.0748C67.6043 28.7316 65.639 31.0823 62.6257 31.0823C60.9225 31.0823 59.6123 30.2987 58.9572 28.9928V34.8696H56.3369V19.198H58.6952V21.1569C59.3503 19.851 60.7914 19.0674 62.4947 19.0674C65.508 19.0674 67.6043 21.4181 67.6043 25.0748ZM65.115 25.0748C65.115 22.7241 63.9358 21.1569 61.9706 21.1569C60.1364 21.1569 58.8262 22.7241 58.8262 25.0748C58.8262 27.4256 60.1364 28.9928 61.9706 28.9928C63.8048 29.1234 65.115 27.5562 65.115 25.0748Z" fill="white"/>
<path d="M80.5749 25.0748C80.5749 28.7316 78.6096 31.0823 75.5962 31.0823C73.893 31.0823 72.5829 30.2987 71.9278 28.9928V34.8696H69.4385V19.198H71.7968V21.1569C72.4519 19.851 73.893 19.0674 75.5962 19.0674C78.6096 19.0674 80.5749 21.4181 80.5749 25.0748ZM78.0855 25.0748C78.0855 22.7241 76.9064 21.1569 74.9412 21.1569C73.1069 21.1569 71.7968 22.7241 71.7968 25.0748C71.7968 27.4256 73.1069 28.9928 74.9412 28.9928C76.9064 29.1234 78.0855 27.5562 78.0855 25.0748Z" fill="white"/>
<path d="M82.5401 14.7576H85.0294V30.9516H82.5401V14.7576Z" fill="white"/>
<path d="M97.738 27.5562C97.4759 29.6457 95.2487 31.2129 92.6283 31.2129C89.2219 31.2129 86.9946 28.8622 86.9946 25.2054C86.9946 21.5487 89.0909 19.0674 92.4973 19.0674C95.7727 19.0674 97.869 21.2875 97.869 24.9442V25.7278H89.484V25.8584C89.484 27.8174 90.7941 29.2539 92.6283 29.2539C93.9385 29.2539 94.9866 28.601 95.3797 27.5562H97.738ZM89.484 24.0301H95.3797C95.3797 22.2017 94.2005 21.0263 92.4973 21.0263C90.7941 21.0263 89.615 22.2017 89.484 24.0301Z" fill="white"/>
<path d="M110.84 14.7576C113.984 14.7576 116.211 16.9777 116.211 20.112C116.211 23.2464 113.984 25.4665 110.84 25.4665H107.302V30.9516H104.813V14.7576H110.84ZM107.171 23.377H110.053C112.281 23.377 113.46 22.2016 113.46 20.112C113.46 18.0225 112.15 16.8471 110.053 16.8471H107.171V23.377Z" fill="white"/>
<path d="M116.997 25.0748C116.997 21.4181 119.225 19.0674 122.631 19.0674C126.037 19.0674 128.265 21.4181 128.265 25.0748C128.265 28.8622 126.037 31.0823 122.631 31.0823C119.225 31.2129 116.997 28.8622 116.997 25.0748ZM125.775 25.0748C125.775 22.4629 124.596 21.0263 122.631 21.0263C120.666 21.0263 119.487 22.5935 119.487 25.0748C119.487 27.6868 120.666 29.1233 122.631 29.1233C124.596 29.1233 125.775 27.6868 125.775 25.0748Z" fill="white"/>
<path d="M129.968 25.0747C129.968 21.418 131.933 19.0673 134.947 19.0673C136.65 19.0673 137.96 19.8509 138.615 21.1568V14.7576H141.104V30.9516H138.877V28.9926C138.222 30.2986 136.781 31.0822 135.078 31.0822C132.064 31.2128 129.968 28.7314 129.968 25.0747ZM132.457 25.0747C132.457 27.5561 133.636 28.9926 135.602 28.9926C137.436 28.9926 138.746 27.4255 138.746 25.0747C138.746 22.724 137.436 21.1568 135.602 21.1568C133.767 21.1568 132.457 22.724 132.457 25.0747Z" fill="white"/>
<path d="M151.586 23.2463C151.324 21.9403 150.406 21.0261 148.834 21.0261C147 21.0261 145.69 22.5933 145.69 25.0746C145.69 27.556 147 29.1231 148.834 29.1231C150.406 29.1231 151.324 28.3395 151.586 27.0336H153.944C153.682 29.5149 151.717 31.2127 148.834 31.2127C145.428 31.2127 143.201 28.8619 143.201 25.2052C143.201 21.5485 145.428 19.1978 148.834 19.1978C151.848 19.1978 153.813 21.1567 153.944 23.3769H151.586V23.2463Z" fill="white"/>
<path d="M155.385 27.6868C155.385 25.5972 156.957 24.4219 159.84 24.1607L163.115 24.0301V23.1159C163.115 21.8099 162.198 21.0263 160.757 21.0263C159.446 21.0263 158.398 21.6793 158.267 22.7241H155.909C156.04 20.6345 158.005 19.0674 160.757 19.0674C163.639 19.0674 165.473 20.6345 165.473 22.9853V31.0823H163.115V29.1234C162.46 30.4293 160.888 31.2129 159.315 31.2129C156.957 31.2129 155.385 29.7763 155.385 27.6868ZM162.984 26.642V25.7278L160.102 25.8584C158.66 25.989 157.874 26.642 157.874 27.5562C157.874 28.601 158.791 29.2539 160.102 29.2539C161.674 29.2539 162.984 28.0786 162.984 26.642Z" fill="white"/>
<path d="M172.286 19.0674C174.906 19.0674 176.741 20.5039 176.872 22.5935H174.644C174.513 21.5487 173.596 20.8957 172.286 20.8957C170.976 20.8957 170.059 21.5487 170.059 22.4629C170.059 23.1159 170.583 23.6383 171.893 23.8995L173.858 24.4219C176.217 24.9442 177.134 25.8584 177.134 27.5562C177.134 29.6457 175.168 31.2129 172.155 31.2129C169.404 31.2129 167.438 29.7763 167.307 27.6868H169.666C169.797 28.8622 170.714 29.3845 172.286 29.3845C173.727 29.3845 174.644 28.7316 174.644 27.8174C174.644 27.0338 174.251 26.642 172.941 26.3808L170.845 25.8584C168.749 25.336 167.57 24.2913 167.57 22.5935C167.57 20.5039 169.535 19.0674 172.286 19.0674Z" fill="white"/>
<path d="M182.374 16.4553V19.1979H184.602V21.1568H182.374V27.6867C182.374 28.7314 182.767 29.1232 183.816 29.1232C184.078 29.1232 184.471 29.1232 184.602 29.1232V31.0822C184.34 31.2128 183.815 31.2128 183.291 31.2128C180.933 31.2128 180.016 30.2986 180.016 28.0785V21.2874H178.182V19.3285H179.885V16.5859H182.374V16.4553Z" fill="white"/>
<path d="M191.152 19.0674C193.773 19.0674 195.607 20.5039 195.738 22.5935H193.511C193.38 21.5487 192.463 20.8957 191.152 20.8957C189.842 20.8957 188.925 21.5487 188.925 22.4629C188.925 23.1159 189.449 23.6383 190.759 23.8995L192.725 24.4219C195.083 24.9442 196 25.8584 196 27.5562C196 29.6457 194.035 31.2129 191.021 31.2129C188.27 31.2129 186.305 29.7763 186.174 27.6868H188.532C188.663 28.8622 189.58 29.3845 191.152 29.3845C192.594 29.3845 193.511 28.7316 193.511 27.8174C193.511 27.0338 193.118 26.642 191.807 26.3808L189.711 25.8584C187.615 25.336 186.436 24.2913 186.436 22.5935C186.567 20.5039 188.401 19.0674 191.152 19.0674Z" fill="white"/>
<path d="M42.4492 7.31339C42.5802 8.09697 43.2353 8.48876 44.2834 8.48876C45.2005 8.48876 45.9866 7.96637 45.9866 7.31339C45.9866 6.6604 45.5936 6.39921 44.5455 6.13802L43.4973 5.87682C42.0562 5.48503 41.4011 4.83205 41.4011 3.78727C41.4011 2.3507 42.5802 1.43652 44.2834 1.43652C45.8556 1.43652 47.0348 2.3507 47.1658 3.65667H45.8556C45.7246 3.00369 45.0695 2.4813 44.1524 2.4813C43.2353 2.4813 42.5802 3.00369 42.5802 3.65667C42.5802 4.17906 42.9733 4.57085 44.0214 4.83205L44.9385 5.09324C46.5107 5.35443 47.1658 6.00742 47.1658 7.18279C47.1658 8.61936 45.9866 9.66414 44.1524 9.66414C42.4492 9.66414 41.2701 8.74996 41.139 7.44399H42.4492V7.31339Z" fill="white"/>
<path d="M50.7032 4.83203L50.0481 5.22382V9.53352H48.869V5.74621L48.2139 6.138V5.09322L48.869 4.70143V1.30591H50.0481V4.17904L50.7032 3.91785V4.83203Z" fill="white"/>
<path d="M56.861 9.40299H55.6818V8.48881H55.5508C55.2888 9.14179 54.6337 9.53359 53.7166 9.53359C52.4064 9.53359 51.6203 8.75 51.6203 7.31344V3.52612H52.7995V7.05224C52.7995 7.96642 53.1925 8.48881 53.9786 8.48881C54.8957 8.48881 55.4198 7.96642 55.4198 7.05224V3.52612H56.5989V9.40299H56.861Z" fill="white"/>
<path d="M62.6257 5.48508C62.4946 4.96269 61.9706 4.4403 61.1845 4.4403C60.2674 4.4403 59.6123 5.22388 59.6123 6.52985C59.6123 7.83582 60.2674 8.61941 61.1845 8.61941C61.9706 8.61941 62.3636 8.22762 62.6257 7.70523H63.8048C63.6738 8.8806 62.7567 9.66418 61.3155 9.66418C59.6123 9.66418 58.5642 8.48881 58.5642 6.52985C58.5642 4.7015 59.6123 3.52612 61.3155 3.52612C62.7567 3.52612 63.6738 4.4403 63.8048 5.61568H62.6257V5.48508Z" fill="white"/>
<path d="M65.246 1.30591H66.4251V4.57083H66.5561C66.8182 3.91785 67.4733 3.52606 68.3904 3.52606C69.7005 3.52606 70.4866 4.30964 70.4866 5.74621V9.53352H69.3075V6.0074C69.3075 5.09322 68.9144 4.57083 67.9973 4.57083C67.0802 4.57083 66.5561 5.22382 66.5561 6.0074V9.40292H65.377V1.30591H65.246Z" fill="white"/>
<path d="M71.7968 7.83582C71.7968 6.79105 72.5829 6.13806 74.0241 6.13806L75.5962 6.00747V5.48508C75.5962 4.83209 75.2032 4.5709 74.4171 4.5709C73.762 4.5709 73.369 4.83209 73.238 5.22388H72.0588C72.1898 4.17911 73.1069 3.52612 74.4171 3.52612C75.8583 3.52612 76.7754 4.3097 76.7754 5.48508V9.53359H75.5962V8.61941H75.4652C75.0722 9.27239 74.4171 9.53359 73.631 9.53359C72.7139 9.53359 71.7968 8.8806 71.7968 7.83582ZM75.5962 7.31344V6.79105L74.1551 6.92165C73.369 6.92165 72.9759 7.31344 72.9759 7.70523C72.9759 8.22762 73.5 8.48881 74.0241 8.48881C74.9412 8.61941 75.5962 7.96642 75.5962 7.31344Z" fill="white"/>
<path d="M79.7888 9.6641C79.7888 10.8395 79.1337 11.4925 77.8235 11.4925H77.5615V10.4477H77.6925C78.4786 10.4477 78.6096 10.3171 78.6096 9.6641V3.52604H79.7888V9.6641ZM78.4786 1.82828C78.4786 1.43649 78.7406 1.17529 79.2647 1.17529C79.6578 1.17529 80.0508 1.43649 80.0508 1.82828C80.0508 2.22007 79.7888 2.48126 79.2647 2.48126C78.7406 2.48126 78.4786 2.22007 78.4786 1.82828Z" fill="white"/>
<path d="M90.9251 9.40299H89.746L88.5668 5.09329H88.4358L87.2567 9.40299H86.0775L84.5053 3.52612H85.6845L86.7326 7.96642H86.8636L88.0428 3.52612H89.0909L90.27 7.96642H90.4011L91.4492 3.52612H92.6283L90.9251 9.40299Z" fill="white"/>
</g>
<defs>
<linearGradient id="paint0_linear" x1="16.4838" y1="0" x2="16.4838" y2="32.8621" gradientUnits="userSpaceOnUse">
<stop stop-color="#F452FF"/>
<stop offset="1" stop-color="#832BC1"/>
</linearGradient>
<clipPath id="clip0">
<rect width="196" height="35" fill="white"/>
</clipPath>
</defs>
</svg>
