<svg xmlns="http://www.w3.org/2000/svg" viewBox="0 0 513.65 381.11" width="112" height="72">
    <defs>
        <style>.cls-1{isolation:isolate;}.cls-2{fill:#fff;}.cls-3{fill:#fff;}</style>
    </defs>
    <g id="Warstwa_5" data-name="Warstwa 5">
        <path class="cls-2" d="M225.83,381.11c-113,0-167.91-60.56-194.11-111.37C3.12,214.29,0,155,0,132.06,0,81.35,40.36,45.93,98.1,45.93H257a30,30,0,0,1,0,60H98.1c-11.91,0-22.66,2.87-29.51,7.88-5.92,4.33-8.56,10-8.56,18.25,0,44.35,12,189.05,165.8,189.05,132.91,0,167.2-105.85,181.44-185.47.66-3.66,1.22-6.82,1.77-9.52,4.3-21.12,8.38-38.41,18.19-52.64,12.61-18.28,32.22-27.55,58.27-27.55A39.67,39.67,0,0,1,513.65,58c10.19,10.24,21.28,29.29,26.34,93,2.5,31.55,2.4,60.05,2.4,61.25a30,30,0,0,1-30,29.86h-.14A30,30,0,0,1,482.39,212c0-.49.07-24.95-1.9-52.17-1.71-23.54-4.13-38.38-6.22-47.51-2.69,7.41-5.28,20.12-6.44,25.81-.4,2-.91,4.82-1.5,8.1-4.85,27.14-14.95,83.62-48.18,135-19.33,29.87-43.7,53.47-72.42,70.12C311.61,371.08,271.27,381.11,225.83,381.11Z"/>
        <circle class="cls-3" cx="342.05" cy="74.93" r="30" transform="translate(150.74 368.18) rotate(-69.25)"/>
    </g>
</svg>
