<svg width="19" height="20" viewBox="0 0 19 20" fill="none" xmlns="http://www.w3.org/2000/svg">
<path d="M13 19V15.5C13 14.5 13.1 14.1 12.5 13.5C15.3 13.2 18 12.1 18 7.49995C17.9988 6.30492 17.5325 5.15726 16.7 4.29995C17.0905 3.26192 17.0545 2.11158 16.6 1.09995C16.6 1.09995 15.5 0.799951 13.1 2.39995C11.0672 1.87054 8.93276 1.87054 6.9 2.39995C4.5 0.799951 3.4 1.09995 3.4 1.09995C2.94548 2.11158 2.90953 3.26192 3.3 4.29995C2.46745 5.15726 2.00122 6.30492 2 7.49995C2 12.1 4.7 13.2 7.5 13.5C6.9 14.1 6.9 14.7 7 15.5V19M7 17C2.7 18.4 2.7 14.5 1 14L7 17Z" stroke="white" stroke-width="2" stroke-linecap="round" stroke-linejoin="round"/>
</svg>
