<svg width="72" height="72" viewBox="0 0 72 72" fill="none" xmlns="http://www.w3.org/2000/svg">
<path d="M54 12H18C14.6863 12 12 14.6863 12 18V54C12 57.3137 14.6863 60 18 60H54C57.3137 60 60 57.3137 60 54V18C60 14.6863 57.3137 12 54 12Z" stroke="white" stroke-width="2" stroke-linecap="round" stroke-linejoin="round"/>
<path d="M24 33V48" stroke="white" stroke-width="2" stroke-linecap="round" stroke-linejoin="round"/>
<path d="M24 24V24.03" stroke="white" stroke-width="2" stroke-linecap="round" stroke-linejoin="round"/>
<path d="M36 48V33" stroke="white" stroke-width="2" stroke-linecap="round" stroke-linejoin="round"/>
<path d="M48 48V39C48 37.4087 47.3679 35.8826 46.2426 34.7574C45.1174 33.6321 43.5913 33 42 33C40.4087 33 38.8826 33.6321 37.7574 34.7574C36.6321 35.8826 36 37.4087 36 39" stroke="white" stroke-width="2" stroke-linecap="round" stroke-linejoin="round"/>
</svg>
