<svg width="32" height="34" viewBox="0 0 32 34" fill="none" xmlns="http://www.w3.org/2000/svg">
<g filter="url(#filter0_d_2785_1686)">
<path d="M13 6H11C10.4477 6 10 6.44772 10 7V19C10 19.5523 10.4477 20 11 20H13C13.5523 20 14 19.5523 14 19V7C14 6.44772 13.5523 6 13 6Z" stroke="white" stroke-width="2" stroke-linecap="round" stroke-linejoin="round"/>
<path d="M21 6H19C18.4477 6 18 6.44772 18 7V19C18 19.5523 18.4477 20 19 20H21C21.5523 20 22 19.5523 22 19V7C22 6.44772 21.5523 6 21 6Z" stroke="white" stroke-width="2" stroke-linecap="round" stroke-linejoin="round"/>
</g>
<defs>
<filter id="filter0_d_2785_1686" x="0" y="0" width="32" height="34" filterUnits="userSpaceOnUse" color-interpolation-filters="sRGB">
<feFlood flood-opacity="0" result="BackgroundImageFix"/>
<feColorMatrix in="SourceAlpha" type="matrix" values="0 0 0 0 0 0 0 0 0 0 0 0 0 0 0 0 0 0 127 0" result="hardAlpha"/>
<feOffset dy="4"/>
<feGaussianBlur stdDeviation="4.5"/>
<feColorMatrix type="matrix" values="0 0 0 0 0 0 0 0 0 0.0901961 0 0 0 0 0.45098 0 0 0 0.5 0"/>
<feBlend mode="normal" in2="BackgroundImageFix" result="effect1_dropShadow_2785_1686"/>
<feBlend mode="normal" in="SourceGraphic" in2="effect1_dropShadow_2785_1686" result="shape"/>
</filter>
</defs>
</svg>
