<svg width="37" height="37" viewBox="0 0 37 37" fill="none" xmlns="http://www.w3.org/2000/svg">
<g clip-path="url(#clip0_3064_7808)">
<path d="M18.5 0C8.28295 0 0 8.28211 0 18.5C0 28.7179 8.28295 37 18.5 37C28.717 37 37 28.7179 37 18.5C37 8.28211 28.717 0 18.5 0ZM27.5257 26.6689C27.2286 27.195 26.6821 27.491 26.1187 27.491C25.8552 27.491 25.5833 27.4251 25.3338 27.2864C23.0241 25.9914 20.507 25.1981 17.8469 24.9287C15.1812 24.6616 12.5492 24.9321 10.0208 25.7394C9.17712 26.0088 8.26895 25.5426 7.99986 24.6975C7.72797 23.851 8.19606 22.9459 9.04258 22.6751C11.9914 21.733 15.0663 21.4126 18.172 21.7283C21.2722 22.0439 24.2098 22.9689 26.9063 24.4803C27.6827 24.9125 27.9602 25.893 27.5257 26.6689ZM29.7401 21.0496C29.4542 21.5999 28.8936 21.9155 28.3134 21.9155C28.0611 21.9155 27.8089 21.8577 27.5706 21.733C24.7311 20.2541 21.6646 19.3384 18.4495 19.0121C15.2092 18.6805 11.9998 18.9695 8.90523 19.862C8.05031 20.1047 7.15895 19.6159 6.91509 18.7612C6.66842 17.908 7.16173 17.0166 8.01385 16.7702C11.5064 15.7631 15.1279 15.4405 18.7747 15.8105C22.3962 16.1794 25.8552 17.2109 29.059 18.8804C29.8439 19.291 30.1522 20.262 29.7401 21.0496ZM30.5418 16.3747C30.3007 16.3747 30.0569 16.3204 29.8242 16.206C26.455 14.5259 22.8307 13.4795 19.0494 13.0958C15.2625 12.7084 11.4952 13.0077 7.84848 13.9815C6.99076 14.2091 6.1106 13.7004 5.88075 12.8412C5.6509 11.9832 6.16107 11.1011 7.0216 10.8721C11.044 9.79799 15.2036 9.47088 19.3773 9.89526C23.5455 10.3171 27.5426 11.4722 31.2594 13.3259C32.0555 13.7222 32.3778 14.689 31.9826 15.4834C31.7023 16.0488 31.1332 16.3747 30.5418 16.3747Z" fill="#1ED760"/>
</g>
<defs>
<clipPath id="clip0_3064_7808">
<rect width="37" height="37" rx="6" fill="white"/>
</clipPath>
</defs>
</svg>
