<svg width="62" height="51" viewBox="0 0 62 51" fill="none" xmlns="http://www.w3.org/2000/svg">
<path d="M61 2.03004C58 3.50004 55.06 4.09704 52 5.00004C48.637 1.20504 43.651 0.99504 38.86 2.78904C34.069 4.58304 30.931 8.96904 31 14V17C21.265 17.249 12.595 12.815 7 5.00004C7 5.00004 -5.546 27.299 19 38C13.384 41.741 7.783 44.264 1 44C10.924 49.409 21.739 51.269 31.102 48.551C41.842 45.431 50.668 37.382 54.055 25.325C55.0654 21.6581 55.5671 17.8696 55.546 14.066C55.54 13.319 60.076 5.75004 61 2.02704V2.03004Z" stroke="white" stroke-width="2" stroke-linecap="round" stroke-linejoin="round"/>
</svg>
