<svg width="1440" height="1019" viewBox="0 0 1440 1019" fill="none" xmlns="http://www.w3.org/2000/svg">
<g clip-path="url(#clip0)">
<rect width="1440" height="1596.14" fill="#001773"/>
<ellipse opacity="0.2" cx="1484.5" cy="367" rx="442.5" ry="441" fill="url(#paint0_radial)"/>
<ellipse opacity="0.4" cx="-122.5" cy="785" rx="442.5" ry="441" fill="url(#paint1_radial)"/>
<ellipse opacity="0.4" cx="1162.5" cy="1147" rx="646.5" ry="644" fill="url(#paint2_radial)"/>
<path d="M80 -102.642L1446 -369V757L80 490.642V-102.642Z" fill="url(#paint3_linear)"/>
<path d="M542 -523.322L2328 -872V602L542 253.322V-523.322Z" fill="url(#paint4_linear)"/>
<path d="M-49 -510.322L1737 -859V615L-49 266.322V-510.322Z" fill="url(#paint5_linear)"/>
<path d="M457 -706.322L2243 -1055V419L457 70.3217V-706.322Z" fill="url(#paint6_linear)"/>
</g>
<defs>
<radialGradient id="paint0_radial" cx="0" cy="0" r="1" gradientUnits="userSpaceOnUse" gradientTransform="translate(1484.5 367) rotate(90) scale(441 442.5)">
<stop stop-color="#0136F8"/>
<stop offset="1" stop-color="#0136F8" stop-opacity="0"/>
</radialGradient>
<radialGradient id="paint1_radial" cx="0" cy="0" r="1" gradientUnits="userSpaceOnUse" gradientTransform="translate(-122.5 785) rotate(90) scale(441 442.5)">
<stop stop-color="#0136F8"/>
<stop offset="1" stop-color="#0136F8" stop-opacity="0"/>
</radialGradient>
<radialGradient id="paint2_radial" cx="0" cy="0" r="1" gradientUnits="userSpaceOnUse" gradientTransform="translate(1162.5 1147) rotate(90) scale(644 646.5)">
<stop stop-color="#0136F8"/>
<stop offset="1" stop-color="#0136F8" stop-opacity="0"/>
</radialGradient>
<linearGradient id="paint3_linear" x1="80" y1="234.755" x2="1121.29" y2="489.054" gradientUnits="userSpaceOnUse">
<stop stop-color="#0136F8" stop-opacity="0.13"/>
<stop offset="1" stop-color="#0136F8" stop-opacity="0.14"/>
</linearGradient>
<linearGradient id="paint4_linear" x1="542" y1="-81.6494" x2="1903.64" y2="250.479" gradientUnits="userSpaceOnUse">
<stop stop-color="#14A5FF" stop-opacity="0"/>
<stop offset="1" stop-color="#41A4FE"/>
</linearGradient>
<linearGradient id="paint5_linear" x1="-49" y1="-68.6494" x2="1312.64" y2="263.479" gradientUnits="userSpaceOnUse">
<stop stop-color="#0136F8" stop-opacity="0.13"/>
<stop offset="1" stop-color="#0136F8" stop-opacity="0.14"/>
</linearGradient>
<linearGradient id="paint6_linear" x1="457" y1="-264.649" x2="1818.64" y2="67.4792" gradientUnits="userSpaceOnUse">
<stop stop-color="#14A6FF" stop-opacity="0.14"/>
<stop offset="1" stop-color="white" stop-opacity="0"/>
</linearGradient>
<clipPath id="clip0">
<rect width="1440" height="1019" fill="white"/>
</clipPath>
</defs>
</svg>
