<svg width="114" height="24" viewBox="0 0 114 24" fill="none" xmlns="http://www.w3.org/2000/svg">
<g clip-path="url(#clip0)">
<path d="M11.734 9.55103C11.734 13.2245 9.88361 15.0367 5.86698 15.0367C1.85036 15.0367 0 13.2735 0 9.55103H2.52732C2.52732 11.0204 2.88836 12.7347 5.86698 12.7347C8.84561 12.7347 9.20665 11.0204 9.20665 9.55103V6.56327H4.60333V4.26123H11.734V9.55103Z" fill="#001773"/>
<path d="M21.076 12.6367H15.209L14.171 14.8898H11.418L16.4727 4.26123H19.8575L24.9121 14.8898H22.114L21.076 12.6367ZM20.1282 10.5796L18.1425 6.26939L16.1567 10.5796H20.1282Z" fill="#001773"/>
<path d="M37.6841 11.8041C37.6841 13.6163 36.7364 14.8898 34.4798 14.8898H25.4988V4.26123H34.1188C36.3302 4.26123 37.0072 5.48572 37.0072 7.05307C37.0072 7.78776 36.7364 8.52246 36.2399 9.11021C37.0974 9.69797 37.6841 10.5306 37.6841 11.8041ZM28.0262 8.4245H33.2162C33.8931 8.4245 34.525 8.4245 34.525 7.29796C34.525 6.22041 33.8931 6.22041 33.2162 6.22041H28.0262V8.4245ZM35.1568 11.6571C35.1568 10.5306 34.525 10.5306 33.848 10.5306H28.0262V12.7837H33.848C34.525 12.7837 35.1568 12.7837 35.1568 11.6571Z" fill="#001773"/>
<path d="M49.7339 12.5878V14.8898H39.6698V11.0694L38.4964 11.6082V9.40409L39.6698 8.86531V4.26123H42.1971V7.73878L45.8076 6.12246V8.32654L42.1971 9.94286V12.5878H49.7339Z" fill="#001773"/>
<path d="M50.2304 9.55099C50.2304 6.02446 52.0807 4.11426 56.3681 4.11426C60.6556 4.11426 62.5059 6.07344 62.5059 9.55099C62.5059 13.0775 60.6556 15.0367 56.3681 15.0367C52.0807 15.0367 50.2304 13.0775 50.2304 9.55099ZM60.0237 9.55099C60.0237 7.39589 59.0309 6.4163 56.3681 6.4163C53.7054 6.4163 52.7126 7.39589 52.7126 9.55099C52.7126 11.7551 53.7506 12.7347 56.3681 12.7347C58.9857 12.7347 60.0237 11.7061 60.0237 9.55099Z" fill="#001773"/>
<path d="M76.0902 4.26122V14.8898H72.6603L65.981 6.90612V14.8898H63.4536V4.26122H66.8836L73.5629 12.2449V4.26122H76.0902ZM72.4798 1.81224L67.019 3.03673V1.22449L72.4798 0V1.81224Z" fill="#001773"/>
<path d="M79.4299 11.2165C79.4299 12.343 80.2874 12.8328 83.4465 12.8328C86.1092 12.8328 86.8765 12.4899 86.8765 11.6573C86.8765 10.7756 86.3349 10.6287 83.1306 10.4818C78.8432 10.2858 77.1734 9.55114 77.1734 7.15114C77.1734 4.80012 79.3848 4.06543 83.0404 4.06543C86.7411 4.06543 88.9525 5.04502 88.9525 7.68992H86.4251C86.4251 6.51441 85.342 6.22053 82.7244 6.22053C80.2423 6.22053 79.6556 6.46543 79.6556 7.2491C79.6556 8.08176 80.2423 8.2287 83.0855 8.42461C86.9667 8.66951 89.3586 8.86543 89.3586 11.5593C89.3586 14.4001 86.8765 14.9879 83.266 14.9879C79.2494 14.9879 76.8575 14.2532 76.8575 11.1675H79.4299V11.2165Z" fill="#001773"/>
<path d="M97.7079 8.96327L103.62 14.8898H100.145L95.8575 10.4816L92.8337 12.8816V14.9388H90.3064V4.26123H92.8337V9.79592L99.829 4.26123H103.665L97.7079 8.96327Z" fill="#001773"/>
<path d="M106.644 14.8898H104.116V4.26123H106.644V14.8898Z" fill="#001773"/>
<path d="M109.938 9.20801V11.1672H112.195V19.5427H39.2185H27.981V21.5998L39.2185 23.9998V21.5019H114V9.20801H109.938Z" fill="#001773"/>
</g>
<defs>
<clipPath id="clip0">
<rect width="114" height="24" fill="white"/>
</clipPath>
</defs>
</svg>
