<svg width="320" height="568" viewBox="0 0 320 568" fill="none" xmlns="http://www.w3.org/2000/svg">
<g clip-path="url(#clip0_1186_2390)">
<rect x="-1120" width="1440" height="1596.14" fill="#001773"/>
<ellipse opacity="0.2" cx="364.5" cy="367" rx="442.5" ry="441" fill="url(#paint0_radial_1186_2390)"/>
<ellipse opacity="0.4" cx="42.5" cy="1147" rx="646.5" ry="644" fill="url(#paint1_radial_1186_2390)"/>
<path d="M-1040 -102.642L326 -369V757L-1040 490.642V-102.642Z" fill="url(#paint2_linear_1186_2390)"/>
<path d="M-578 -523.322L1208 -872V602L-578 253.322V-523.322Z" fill="url(#paint3_linear_1186_2390)"/>
<path d="M-1169 -510.322L617 -859V615L-1169 266.322V-510.322Z" fill="url(#paint4_linear_1186_2390)"/>
<path d="M-663 -706.322L1123 -1055V419L-663 70.3217V-706.322Z" fill="url(#paint5_linear_1186_2390)"/>
</g>
<defs>
<radialGradient id="paint0_radial_1186_2390" cx="0" cy="0" r="1" gradientUnits="userSpaceOnUse" gradientTransform="translate(364.5 367) rotate(90) scale(441 442.5)">
<stop stop-color="#0136F8"/>
<stop offset="1" stop-color="#0136F8" stop-opacity="0"/>
</radialGradient>
<radialGradient id="paint1_radial_1186_2390" cx="0" cy="0" r="1" gradientUnits="userSpaceOnUse" gradientTransform="translate(42.5 1147) rotate(90) scale(644 646.5)">
<stop stop-color="#0136F8"/>
<stop offset="1" stop-color="#0136F8" stop-opacity="0"/>
</radialGradient>
<linearGradient id="paint2_linear_1186_2390" x1="-1040" y1="234.755" x2="1.28924" y2="489.054" gradientUnits="userSpaceOnUse">
<stop stop-color="#0136F8" stop-opacity="0.13"/>
<stop offset="1" stop-color="#0136F8" stop-opacity="0.14"/>
</linearGradient>
<linearGradient id="paint3_linear_1186_2390" x1="-578" y1="-81.6494" x2="783.638" y2="250.479" gradientUnits="userSpaceOnUse">
<stop stop-color="#14A5FF" stop-opacity="0"/>
<stop offset="1" stop-color="#41A4FE"/>
</linearGradient>
<linearGradient id="paint4_linear_1186_2390" x1="-1169" y1="-68.6494" x2="192.638" y2="263.479" gradientUnits="userSpaceOnUse">
<stop stop-color="#0136F8" stop-opacity="0.13"/>
<stop offset="1" stop-color="#0136F8" stop-opacity="0.14"/>
</linearGradient>
<linearGradient id="paint5_linear_1186_2390" x1="-663" y1="-264.649" x2="698.638" y2="67.4792" gradientUnits="userSpaceOnUse">
<stop stop-color="#14A6FF" stop-opacity="0.14"/>
<stop offset="1" stop-color="white" stop-opacity="0"/>
</linearGradient>
<clipPath id="clip0_1186_2390">
<rect width="320" height="568" fill="white"/>
</clipPath>
</defs>
</svg>
