<svg width="495" height="269" viewBox="0 0 495 269" fill="none" xmlns="http://www.w3.org/2000/svg">
<g clip-path="url(#clip0_3064_7780)">
<circle cx="248" cy="177" r="2" fill="#B3BBDA"/>
<rect x="-169.941" width="1193.53" height="464.418" rx="8" fill="#001773"/>
<path d="M143 -295.642L1509 -562V564L168.876 302.687C153.847 299.757 143 286.591 143 271.279V-295.642Z" fill="url(#paint0_linear_3064_7780)"/>
<path d="M45 -703.322L1831 -1052V422L45 73.3217V-703.322Z" fill="url(#paint1_linear_3064_7780)"/>
<path d="M364 -703.322L2150 -1052V422L364 73.3217V-703.322Z" fill="url(#paint2_linear_3064_7780)"/>
<circle opacity="0.44" cx="512" cy="121" r="51" fill="url(#paint3_linear_3064_7780)"/>
</g>
<defs>
<linearGradient id="paint0_linear_3064_7780" x1="143" y1="41.7549" x2="1184.29" y2="296.054" gradientUnits="userSpaceOnUse">
<stop stop-color="#0136F8" stop-opacity="0.13"/>
<stop offset="1" stop-color="#0136F8" stop-opacity="0.14"/>
</linearGradient>
<linearGradient id="paint1_linear_3064_7780" x1="45" y1="-261.649" x2="1406.64" y2="70.4792" gradientUnits="userSpaceOnUse">
<stop stop-color="#0136F8" stop-opacity="0.13"/>
<stop offset="1" stop-color="#0136F8" stop-opacity="0.14"/>
</linearGradient>
<linearGradient id="paint2_linear_3064_7780" x1="364" y1="-261.649" x2="1725.64" y2="70.4792" gradientUnits="userSpaceOnUse">
<stop stop-color="#14A5FF" stop-opacity="0"/>
<stop offset="1" stop-color="#41A4FE"/>
</linearGradient>
<linearGradient id="paint3_linear_3064_7780" x1="461" y1="121" x2="562.273" y2="121.168" gradientUnits="userSpaceOnUse">
<stop stop-color="#0136F8"/>
<stop offset="1" stop-color="#14A5FF"/>
</linearGradient>
<clipPath id="clip0_3064_7780">
<rect width="495" height="269" rx="11" fill="white"/>
</clipPath>
</defs>
</svg>
